{
  "asset": {
    "version": "2.0",
    "generator": "THREE.GLTFExporter"
  },
  "scenes": [
    {
      "name": "Scene",
      "nodes": [
        0
      ]
    }
  ],
  "scene": 0,
  "nodes": [
    {
      "name": "land 1.ply",
      "mesh": 0
    }
  ],
  "bufferViews": [
    {
      "buffer": 0,
      "byteOffset": 0,
      "byteLength": 758796,
      "target": 34962,
      "byteStride": 12
    },
    {
      "buffer": 0,
      "byteOffset": 758796,
      "byteLength": 758796,
      "target": 34962,
      "byteStride": 12
    },
    {
      "buffer": 0,
      "byteOffset": 1517592,
      "byteLength": 757668,
      "target": 34963
    }
  ],
  "buffers": [
    {
      "byteLength": 2275260,
      "uri": "data:application/octet-stream;base64,"
    }
  ],
  "accessors": [
    {
      "bufferView": 0,
      "componentType": 5126,
      "count": 63233,
      "max": [
        18.74764633178711,
        -12.638237953186035,
        25.886573791503906
      ],
      "min": [
        -58.68033218383789,
        -90.2920913696289,
        -14.214306831359863
      ],
      "type": "VEC3"
    },
    {
      "bufferView": 1,
      "componentType": 5126,
      "count": 63233,
      "max": [
        0.9490196108818054,
        0.8313725590705872,
        0.8470588326454163
      ],
      "min": [
        0.2666666805744171,
        0.2549019753932953,
        0
      ],
      "type": "VEC3"
    },
    {
      "bufferView": 2,
      "componentType": 5123,
      "count": 378834,
      "max": [
        63232
      ],
      "min": [
        0
      ],
      "type": "SCALAR"
    }
  ],
  "materials": [
    {
      "pbrMetallicRoughness": {
        "metallicFactor": 0,
        "roughnessFactor": 1
      }
    }
  ],
  "meshes": [
    {
      "primitives": [
        {
          "mode": 4,
          "attributes": {
            "POSITION": 0,
            "COLOR_0": 1
          },
          "indices": 2,
          "material": 0
        }
      ]
    }
  ]
}